<svg width="110" height="110" viewBox="0 0 110 110" fill="none" xmlns="http://www.w3.org/2000/svg">
<path d="M110 55C110 85.3757 85.3757 110 55 110C24.6243 110 0 85.3757 0 55C0 24.6243 24.6243 0 55 0C85.3757 0 110 24.6243 110 55Z" fill="#008000" fill-opacity="0.1"/>
<path d="M42.166 50.3334H37.4993V66.6667H42.166V50.3334ZM56.166 50.3334H51.4993V66.6667H56.166V50.3334ZM75.9993 71.3334H31.666V76H75.9993V71.3334ZM70.166 50.3334H65.4993V66.6667H70.166V50.3334ZM53.8327 34.6067L65.9893 41H41.676L53.8327 34.6067ZM53.8327 29.3334L31.666 41V45.6667H75.9993V41L53.8327 29.3334Z" fill="#23B123"/>
</svg>
